<svg width="60" height="60" viewBox="0 0 60 60" fill="none" xmlns="http://www.w3.org/2000/svg">
<rect width="60" height="60" rx="10" fill="#E0E0E0"/>
<g clip-path="url(#clip0_76_11)">
<path d="M6.65334 25.3994C7.70477 25.3994 8.70678 25.7509 9.42961 26.3557V25.5875H11.5324V32.9341C11.5324 36.1866 9.865 37.8374 6.57947 37.8374C4.97772 37.8374 3.6471 37.2245 2.51355 35.9741L2.26717 35.6963L3.9592 34.3724L4.18102 34.6421C5.01878 35.6882 5.96343 35.9087 6.61228 35.9087C8.41109 35.9087 9.33108 35.157 9.42146 33.6124C8.68223 34.2418 7.82796 34.5031 6.60413 34.5031C3.79495 34.5032 2.0536 32.1252 2.0536 29.9269C2.0536 27.4263 4.1153 25.3996 6.65334 25.3996V25.3994ZM26.958 25.5875L29.34 31.2916L31.7466 25.5875H34.0219L28.7077 37.8292H26.4734L28.1408 33.9311L24.5925 25.5875H26.958ZM20.9866 25.3995C23.4918 25.3995 25.11 26.6171 25.1264 28.5049V34.397H23.1057V33.9394C22.4732 34.3805 21.7505 34.5849 20.8551 34.5849C18.5552 34.5849 16.9453 33.2446 16.9453 31.3242C16.9453 29.8124 18.1691 28.1861 20.8387 28.1861C21.6354 28.1861 22.3747 28.3905 23.0071 28.7663V28.6193C23.0071 27.5569 21.8654 27.3363 20.9126 27.3363C20.2144 27.3363 19.5491 27.4997 18.8098 27.8593L18.4977 28.0065L17.5532 26.2004L17.9063 26.0533C18.9576 25.612 19.968 25.3994 20.9865 25.3994L20.9866 25.3995ZM17.4464 25.3995V27.6713L17.0193 27.5651C16.8139 27.5242 16.625 27.4997 16.4525 27.4997C15.4258 27.4997 14.8426 28.2107 14.8426 29.4446V34.4051H12.7315V25.5875H14.8426V26.0615C15.4669 25.4567 16.1568 25.3995 17.0932 25.3995H17.4464ZM21.0934 30.1148C19.853 30.1148 19.1384 30.5805 19.1384 31.3896C19.1384 32.1987 19.853 32.6645 21.0934 32.6645C22.3336 32.6645 23.0482 32.1987 23.0482 31.3896C23.0482 30.5805 22.3336 30.1148 21.0934 30.1148ZM6.89157 27.4098C5.24049 27.4098 4.25489 28.6929 4.25489 29.9268C4.25489 31.643 5.59376 32.5663 6.8505 32.5663C8.2715 32.5663 9.42961 31.4141 9.42146 30.0085C9.42146 28.5948 8.26324 27.4098 6.89157 27.4098Z" fill="#A6AFBD"/>
<path d="M52.2074 25.6855C53.4641 25.6855 54.7454 26.2086 55.4437 27.2138H55.4765V25.8899H56.9468V33.1957C56.9468 36.3174 55.4437 37.9437 52.1417 37.9437C50.6385 37.9437 49.3161 37.3879 48.1662 36.1213L49.3407 35.1979C50.2443 36.3174 51.2874 36.6606 52.1663 36.6606C54.458 36.6606 55.4683 35.5247 55.4683 33.637V33.0322H55.4436C54.6386 33.9884 53.8091 34.4624 52.1581 34.4624C49.2998 34.4624 47.772 32.0189 47.772 30.0495C47.772 27.5898 49.8008 25.6855 52.2074 25.6855ZM42.1619 25.6938C44.8395 25.6938 46.7699 27.745 46.7699 30.1311C46.7699 32.5583 44.9382 34.5604 42.1619 34.5604C39.3855 34.5604 37.5539 32.5583 37.5539 30.1312C37.5457 27.745 39.4759 25.6938 42.1619 25.6938ZM35.8864 22V31.7166C35.8864 32.6726 36.3629 32.9996 36.831 32.9996H37.2746V34.3643H36.6667C35.3116 34.3643 34.408 33.5962 34.408 31.8228V22H35.8864ZM42.1536 27.0585C40.5272 27.0585 39.1145 28.3742 39.1145 30.1312C39.1145 31.7574 40.5191 33.1875 42.1536 33.1875C43.7882 33.1875 45.1928 31.7574 45.1928 30.1312C45.1928 28.3742 43.7882 27.0585 42.1536 27.0585ZM52.4703 27.0585C50.4743 27.0585 49.349 28.6357 49.349 30.0494C49.349 32.0026 50.8849 33.1712 52.421 33.1712C54.1048 33.1712 55.4765 31.8228 55.4765 30.1312C55.4765 28.4233 54.072 27.0585 52.4703 27.0585Z" fill="#FF3633"/>
<path d="M40.2151 29.886C40.3384 29.886 40.4451 29.9514 40.5027 30.0577H40.7737L41.2009 29.0362C41.2173 28.9871 41.2666 28.9463 41.3158 28.9299C41.4062 28.9135 41.4965 28.9626 41.5131 29.0525L41.9647 31.0301L42.4247 28.366C42.4329 28.3007 42.4821 28.2516 42.548 28.2353C42.6382 28.2108 42.7286 28.268 42.7533 28.3579L43.246 30.36L43.5007 29.6163C43.5089 29.5837 43.5336 29.5509 43.5664 29.5264C43.6404 29.4773 43.7471 29.4938 43.7965 29.5674L44.0099 29.8697C44.0182 29.9433 44.0182 30.0169 44.0182 30.0904C44.0182 30.1885 44.0099 30.2864 44.0018 30.3763C43.9689 30.3682 43.9443 30.3437 43.9197 30.3192L43.7061 30.025L43.3775 31.0138C43.3447 31.1037 43.2543 31.1445 43.1639 31.12C43.1064 31.1037 43.0654 31.0546 43.0571 31.0056L42.6136 29.2241L42.1454 31.9291C42.129 32.0189 42.0469 32.0762 41.9565 32.068C41.8825 32.0597 41.8333 32.0026 41.8169 31.9291L41.3158 29.6409L41.0448 30.2864C41.0201 30.3518 40.9544 30.3927 40.8888 30.3927H40.5027C40.4734 30.4426 40.4314 30.484 40.3809 30.5127C40.3305 30.5414 40.2733 30.5564 40.2151 30.5562C40.0345 30.5562 39.8785 30.409 39.8785 30.2211C39.8866 30.0413 40.0345 29.886 40.2151 29.886Z" fill="#A6AFBD"/>
</g>
<defs>
<clipPath id="clip0_76_11">
<rect width="55" height="16" fill="white" transform="translate(2 22)"/>
</clipPath>
</defs>
</svg>
