<svg width="60" height="60" viewBox="0 0 60 60" fill="none" xmlns="http://www.w3.org/2000/svg">
<mask id="mask0_74_4" style="mask-type:alpha" maskUnits="userSpaceOnUse" x="0" y="0" width="60" height="60">
<rect width="60" height="60" rx="10" fill="#E0E0E0"/>
</mask>
<g mask="url(#mask0_74_4)">
<rect x="3" y="2" width="55" height="55" rx="10" fill="#E0E0E0"/>
<path d="M59.9959 30.0648C59.9959 35.5827 59.9959 41.1007 59.9959 46.6186C60.0533 48.893 59.5086 51.142 58.4172 53.137C57.3259 55.132 55.7267 56.8018 53.7824 57.9766C51.6356 59.3322 49.142 60.0333 46.6048 59.9948C35.5277 59.9948 24.4506 59.9948 13.3734 59.9948C10.329 60.0816 7.35269 59.0825 4.97481 57.1755C2.59692 55.2684 0.971953 52.5772 0.389434 49.5816C0.138651 48.4173 0.00940055 47.23 0.00376959 46.0389C0.00376959 35.1748 0.00376959 24.3107 0.00376959 13.4466C-0.0698357 10.3876 0.936495 7.40088 2.84538 5.01273C4.75427 2.62457 7.44317 0.988345 10.4381 0.392446C11.5645 0.145616 12.7133 0.0161037 13.8662 0.00597494C24.7719 0.00597494 35.6991 0.00597494 46.6048 0.00597494C49.6498 -0.0869593 52.6288 0.906763 55.0107 2.80999C57.3926 4.71322 59.0227 7.40226 59.6102 10.3977C59.893 11.7457 60.0224 13.1214 59.9959 14.4986V30.0648ZM6.75288 30.0648V31.5248C6.69464 36.6935 7.13231 41.8559 8.05986 46.9407C8.34411 49.0049 9.00503 50.9991 10.0096 52.8236C10.2524 53.2498 10.6055 53.6024 11.0316 53.8442C11.4578 54.0861 11.9411 54.2082 12.4307 54.1977C14.2766 54.1774 16.1071 53.8584 17.8514 53.253C23.4791 51.3827 28.9171 48.9816 34.0922 46.0818C39.4409 43.3021 44.5256 40.0394 49.283 36.3342C50.9222 35.0642 52.3661 33.5595 53.5682 31.8683C53.9626 31.3542 54.1764 30.724 54.1764 30.0755C54.1764 29.4271 53.9626 28.7968 53.5682 28.2827C52.9577 27.3228 52.2388 26.4366 51.4256 25.6419C49.4104 23.8226 47.2618 22.1575 44.9979 20.6607C38.1765 16.0236 30.9134 12.0751 23.315 8.87332C20.3979 7.56265 17.3331 6.61101 14.1876 6.03921C13.6707 5.84852 13.1182 5.7743 12.5695 5.82181C12.0207 5.86933 11.4891 6.03743 11.0125 6.31414C10.5359 6.59086 10.126 6.9694 9.81198 7.42285C9.49792 7.8763 9.28741 8.39352 9.19542 8.93774C8.68756 10.3332 8.30047 11.7699 8.03843 13.2319C7.06731 18.7879 6.63678 24.4253 6.75288 30.0648Z" fill="#0149AE"/>
<path d="M27.7149 34.2946C27.9068 33.8658 28.0347 33.5594 28.1413 33.2531C29.0579 30.9048 29.9745 28.5564 30.9124 26.2081C30.9488 26.0216 31.0292 25.8456 31.1474 25.6934C31.2656 25.5413 31.4186 25.417 31.5946 25.33C31.7741 25.2466 31.973 25.2084 32.1722 25.2192C32.3715 25.23 32.5646 25.2893 32.7332 25.3915C32.9018 25.4938 33.0404 25.6356 33.1359 25.8035C33.2313 25.9714 33.2804 26.1599 33.2786 26.351C33.5344 28.0051 33.7688 29.6796 34.0033 31.354L34.451 34.5192C34.451 34.948 34.5576 35.3973 33.982 35.4585C33.4065 35.5198 33.3425 35.0297 33.2999 34.6213C32.9588 32.3546 32.6391 30.088 32.3193 27.8213C32.2642 27.3841 32.1643 26.9532 32.0209 26.5348L31.6372 27.4742L28.9087 34.2946V34.4784C28.8387 34.7193 28.6883 34.9316 28.4804 35.0828C28.2725 35.234 28.0186 35.3158 27.7576 35.3156C27.501 35.3173 27.2515 35.2354 27.05 35.0832C26.8486 34.9311 26.7072 34.7177 26.6491 34.4784C25.7112 32.0483 24.7519 29.6183 23.7927 27.1679C23.6978 26.8898 23.5455 26.6329 23.345 26.4123L22.4071 33.2531C22.4071 33.7228 22.2792 34.2129 22.1726 34.703C22.066 35.1931 21.9808 35.4381 21.4905 35.336C21.0002 35.2339 20.9576 34.8868 21.0215 34.4988L21.8529 28.8423C21.9808 27.9847 22.1087 27.127 22.2152 26.2694C22.2135 25.9862 22.3216 25.7124 22.5185 25.5012C22.7154 25.2899 22.9871 25.1562 23.2811 25.1258C23.5622 25.0886 23.8476 25.154 24.0806 25.3091C24.3136 25.4642 24.4772 25.6977 24.5388 25.9631L27.5018 33.4982C27.4804 33.682 27.5657 33.8658 27.7149 34.2946Z" fill="#0149AE"/>
<path d="M41.1657 35.3564C40.2867 35.438 39.4015 35.438 38.5225 35.3564C37.9509 35.2521 37.4262 34.9831 37.0185 34.5853C36.6109 34.1875 36.3399 33.68 36.2416 33.1306C36.2416 32.7222 36.2416 32.3342 36.7105 32.2321C37.1795 32.13 37.3927 32.4771 37.4779 32.8856C37.4884 33.0763 37.5393 33.263 37.6275 33.4343C37.7156 33.6056 37.8392 33.758 37.9907 33.8821C38.1423 34.0063 38.3186 34.0996 38.5089 34.1565C38.6992 34.2133 38.8997 34.2325 39.098 34.2129C40.4836 34.2129 41.8905 34.2129 43.3613 34.2129C43.774 34.2345 44.1788 34.0983 44.4866 33.834C44.7945 33.5698 44.9801 33.1992 45.0027 32.8039C45.0253 32.4085 44.8831 32.0207 44.6072 31.7259C44.3314 31.431 43.9446 31.2532 43.5319 31.2315C42.6792 31.0273 41.8052 30.9252 40.9312 30.7823C40.0531 30.6776 39.1887 30.486 38.3519 30.2105C37.7046 30.0423 37.1446 29.6515 36.7789 29.1129C36.4132 28.5742 36.2675 27.9254 36.3695 27.2904C36.4742 26.6304 36.8309 26.0311 37.3704 25.6086C37.9099 25.1861 38.5938 24.9704 39.2898 25.0033C40.5902 25.0033 41.8905 25.0033 43.1695 25.0033C43.8014 24.9953 44.4175 25.193 44.917 25.5639C45.4164 25.9348 45.7698 26.4571 45.9193 27.0453C45.9193 27.4741 46.0685 27.9642 45.493 28.0868C44.9174 28.2093 44.7895 27.76 44.7043 27.3312C44.6565 26.9848 44.4742 26.6684 44.1936 26.4451C43.9131 26.2218 43.555 26.108 43.1908 26.1264C41.8407 26.1264 40.4978 26.1264 39.162 26.1264C38.8226 26.1181 38.49 26.2179 38.2161 26.41C37.9423 26.6022 37.7427 26.8758 37.6485 27.1883C37.5284 27.5327 37.5497 27.9081 37.7081 28.2381C37.8665 28.568 38.15 28.8279 38.5011 28.9648C39.6116 29.3568 40.7741 29.5973 41.9544 29.6795C42.7406 29.7596 43.5137 29.931 44.2566 30.1901C44.8486 30.381 45.3534 30.7622 45.6855 31.269C46.0176 31.7758 46.1565 32.3771 46.0787 32.9708C46.001 33.5645 45.7112 34.1142 45.2587 34.5266C44.8062 34.9391 44.2187 35.189 43.5958 35.2339C42.7895 35.3259 41.9777 35.3668 41.1657 35.3564Z" fill="#0149AE"/>
<path d="M15.1381 30.6189C15.1381 29.3732 15.1381 28.1276 15.1381 26.8819C15.1381 26.3919 14.9463 26.2081 14.4347 26.2285H11.8767C11.4504 26.2285 11.0453 26.2285 11.0027 25.6771C10.9601 25.1258 11.429 25.0237 11.8767 25.0237H19.572C19.9983 25.0237 20.4033 25.1258 20.4033 25.6363C20.4033 26.1468 20.0196 26.2285 19.5933 26.2285H17.0353C16.4811 26.2285 16.3105 26.4123 16.3319 26.9228V34.5804C16.3319 34.9684 16.3319 35.336 15.7563 35.336C15.1808 35.336 15.1594 35.0093 15.1594 34.6009C15.1594 33.7432 15.1594 32.8855 15.1594 32.0075L15.1381 30.6189Z" fill="#0149AE"/>
</g>
</svg>
