<svg id="Слой_1" data-name="Слой 1" xmlns="http://www.w3.org/2000/svg" viewBox="0 0 60 60"><defs><style>.cls-1{fill:#0149ae;}</style></defs><path class="cls-1" d="M44,30c0,2.57,0,5.14,0,7.71A6,6,0,0,1,41.1,43a6.11,6.11,0,0,1-3.35.94c-5.17,0-10.34,0-15.51,0a6,6,0,0,1-6.06-4.85A8,8,0,0,1,16,37.44c0-5.06,0-10.12,0-15.18a6.05,6.05,0,0,1,4.87-6.08A7.81,7.81,0,0,1,22.47,16c5.09,0,10.19,0,15.28,0a6,6,0,0,1,6.07,4.84A8.49,8.49,0,0,1,44,22.75V30ZM19.15,30v.68a37.57,37.57,0,0,0,.61,7.18,7.91,7.91,0,0,0,.91,2.74,1.27,1.27,0,0,0,1.13.64,8,8,0,0,0,2.53-.44,43.75,43.75,0,0,0,7.58-3.34A46.26,46.26,0,0,0,39,32.92a9.86,9.86,0,0,0,2-2.08,1.37,1.37,0,0,0,0-1.67A6.89,6.89,0,0,0,40,27.94a25.29,25.29,0,0,0-3-2.32,58.24,58.24,0,0,0-10.12-5.49,18.47,18.47,0,0,0-4.26-1.32,1.75,1.75,0,0,0-2.33,1.35,12.06,12.06,0,0,0-.54,2A40.59,40.59,0,0,0,19.15,30Z"/><path class="cls-1" d="M28.49,32c.09-.21.15-.36.2-.51.43-1.15.86-2.3,1.3-3.45a.61.61,0,0,1,.32-.43.55.55,0,0,1,.79.5c.12.81.23,1.63.34,2.45l.21,1.55c0,.21.05.43-.22.46s-.3-.21-.32-.41c-.16-1.11-.31-2.22-.46-3.33a3.28,3.28,0,0,0-.14-.63l-.18.46L29.05,32l0,.09a.56.56,0,0,1-.54.41.53.53,0,0,1-.52-.41c-.44-1.19-.89-2.38-1.34-3.58a1.07,1.07,0,0,0-.21-.37L26,31.49c0,.23-.06.47-.11.71s-.09.36-.32.31-.25-.22-.22-.41l.39-2.77c.06-.42.12-.84.17-1.26a.56.56,0,0,1,.5-.56.53.53,0,0,1,.59.41l1.39,3.69C28.38,31.7,28.42,31.79,28.49,32Z"/><path class="cls-1" d="M34.8,32.52a6.43,6.43,0,0,1-1.24,0,1.34,1.34,0,0,1-1.07-1.09c0-.2,0-.39.22-.44s.32.12.36.32a.69.69,0,0,0,.76.65c.65,0,1.31,0,2,0a.73.73,0,0,0,.08-1.46c-.4-.1-.81-.15-1.22-.22A6,6,0,0,1,33.48,30a1.28,1.28,0,0,1-.93-1.43,1.32,1.32,0,0,1,1.37-1.12c.61,0,1.22,0,1.82,0a1.31,1.31,0,0,1,1.29,1c0,.21.07.45-.2.51s-.33-.16-.37-.37a.68.68,0,0,0-.71-.59q-.95,0-1.89,0a.72.72,0,0,0-.71.52.7.7,0,0,0,.4.87,5.93,5.93,0,0,0,1.62.35,4.57,4.57,0,0,1,1.08.25,1.27,1.27,0,0,1-.31,2.47A8.66,8.66,0,0,1,34.8,32.52Z"/><path class="cls-1" d="M22.59,30.2c0-.61,0-1.22,0-1.83,0-.24-.09-.33-.33-.32h-1.2c-.2,0-.39,0-.41-.27s.2-.32.41-.32h3.61c.2,0,.39.05.39.3s-.18.29-.38.29H23.48c-.26,0-.34.09-.33.34v3.75c0,.19,0,.37-.27.37s-.28-.16-.28-.36c0-.42,0-.84,0-1.27Z"/></svg>