<svg width="62" height="61" viewBox="0 0 62 61" fill="none" xmlns="http://www.w3.org/2000/svg">
<mask id="mask0_9_5" style="mask-type:alpha" maskUnits="userSpaceOnUse" x="0" y="0" width="62" height="61">
<g clip-path="url(#clip0_9_5)">
<path d="M36.5768 38.8271C33.2507 41.0034 29.0076 41.7755 24.6579 41.7373C20.6667 41.6992 16.698 40.9844 12.8295 40.1202C8.618 39.1814 4.31787 38.6809 0 38.627L0 61H52.5837C46.6389 54.4965 34.7781 47.7833 36.5768 38.8271Z" fill="#3075A6"/>
<path d="M35.4369 16.1237C39.8511 20.2063 43.7391 25.1879 42.1471 31.1545C47.4688 28.0822 55.3318 28.6509 62 30.1124V0H24.3253C22.1036 6.52255 31.3229 12.3144 35.4369 16.1237Z" fill="#3075A6"/>
<path d="M11.2181 37.5722C14.8994 38.3188 18.4934 39.2815 22.2554 39.6023C26.153 39.9201 30.7384 40.0789 34.2485 38.0615C37.9169 35.9551 40.7779 31.0306 39.6768 26.7606C37.9459 20.0506 31.0452 15.9426 26.3468 11.3199C23.1176 8.14286 20.1758 4.37167 21.616 0H0V36.5841C3.76409 36.5296 7.52372 36.8608 11.2181 37.5722Z" fill="#3075A6"/>
<path d="M39.0503 39.6151C38.834 48.962 50.7076 54.2709 56.0616 61H62V32.3427C52.7743 30.2649 39.2828 29.3626 39.0503 39.6151Z" fill="#3075A6"/>
</g>
</mask>
<g mask="url(#mask0_9_5)">
<rect x="1" y="1" width="60" height="60" rx="10" fill="#3075A6"/>
</g>
<defs>
<clipPath id="clip0_9_5">
<rect width="62" height="61" fill="white"/>
</clipPath>
</defs>
</svg>
